<svg width="42" height="41" viewBox="0 0 42 41" fill="none" xmlns="http://www.w3.org/2000/svg">
<path fill-rule="evenodd" clip-rule="evenodd" d="M22.9701 0.0707874C22.6275 0.172243 7.84286 7.57996 7.66979 7.73686C7.62671 7.77594 8.07394 7.80758 8.66864 7.80758H9.74537L18.0606 5.5024C22.6339 4.23458 26.4072 3.16733 26.4458 3.13067C26.4843 3.09401 26.2904 2.59508 26.015 2.02192C25.4766 0.901892 25.1331 0.490306 24.4983 0.204893C24.0291 -0.00603527 23.4126 -0.0601452 22.9701 0.0707874ZM23.4215 5.50165C19.0886 6.70852 15.4882 7.71807 15.4205 7.74512C15.3528 7.77226 19.6796 7.7974 25.0356 7.80099L34.7739 7.80758L34.534 6.90993C34.402 6.41626 34.2164 5.72143 34.1215 5.36596C33.7579 4.00494 32.9236 3.2915 31.7097 3.30335C31.4374 3.30611 28.6495 4.04553 23.4215 5.50165ZM1.60085 9.61467C1.31011 9.70577 1.0668 9.87462 0.724685 10.2227C-0.0775475 11.0391 -0.0120624 9.63956 0.0124739 25.4305L0.033974 39.2464L0.225587 39.6222C0.494503 40.1494 0.929757 40.5811 1.42024 40.8069L1.83933 41H19.8108C36.6948 41 37.8013 40.9912 38.0972 40.855C38.6431 40.6039 39.0323 40.2252 39.2954 39.6893L39.5466 39.1781V35.5615V31.945L32.1815 31.9213L24.8165 31.8975L24.3307 31.7095C22.9656 31.1815 22.0528 30.1687 21.7051 28.7965C21.5982 28.3747 21.5752 27.7511 21.5756 25.2894C21.5758 23.6427 21.612 22.0699 21.656 21.7943C21.8363 20.6655 22.6795 19.4784 23.6904 18.9301C24.6567 18.4061 24.5054 18.415 32.39 18.4137L39.553 18.4125L39.5293 14.7592L39.5055 11.106L39.2872 10.7302C39.0145 10.2611 38.7084 9.96597 38.2336 9.71479L37.8643 9.51939L19.9339 9.50395C4.1432 9.49034 1.95544 9.50353 1.60085 9.61467ZM24.9806 20.1953C24.2908 20.398 23.7981 20.8183 23.4491 21.5021C23.2577 21.8771 23.2574 21.884 23.2574 25.1344C23.2574 28.3815 23.2579 28.3923 23.4518 28.8288C23.6763 29.3341 24.1404 29.7942 24.6834 30.0497C25.0621 30.2279 25.074 30.2281 32.6124 30.2281C40.1507 30.2281 40.1626 30.2279 40.5413 30.0497C41.0576 29.8068 41.5218 29.3621 41.7649 28.8779L41.9674 28.4746L41.9917 25.3569C42.0207 21.6222 42.0134 21.5754 41.2845 20.8389C40.486 20.0322 41.0542 20.0813 32.6234 20.0907C27.3593 20.0966 25.2169 20.1259 24.9806 20.1953ZM29.9537 23.8627C30.3644 24.1418 30.5195 24.5214 30.5196 25.2471C30.5199 26.3635 30.1545 26.782 29.1341 26.8345C28.3919 26.8726 28.0033 26.7628 27.6852 26.4252C27.4568 26.1827 27.4409 26.1209 27.4139 25.375C27.3802 24.4416 27.4671 24.1648 27.884 23.8765C28.1425 23.6978 28.2687 23.6731 28.9265 23.6731C29.568 23.6731 29.7148 23.7002 29.9537 23.8627Z" fill="#45983C"/>
</svg>
