<svg width="40" height="26" viewBox="0 0 40 26" fill="none" xmlns="http://www.w3.org/2000/svg">
<path fill-rule="evenodd" clip-rule="evenodd" d="M5.14054 0.121544C4.40344 0.332844 3.78677 0.929525 3.50298 1.70622C3.37371 2.06006 3.35245 2.33451 3.35245 3.64994V5.18171L4.19265 5.22697C5.49647 5.29711 6.25624 5.63649 7.11957 6.53419C7.71419 7.15249 8.1593 8.0658 8.27364 8.90247C8.31647 9.21536 8.35211 10.4679 8.35297 11.6859L8.35453 13.9005H20H31.6455L31.647 11.6859C31.6479 10.4679 31.6835 9.21536 31.7264 8.90247C31.8407 8.0658 32.2858 7.15249 32.8804 6.53419C33.7438 5.63649 34.5035 5.29711 35.8074 5.22697L36.6475 5.18171V3.64994C36.6475 2.33451 36.6263 2.06006 36.497 1.70622C36.2066 0.911565 35.5945 0.330568 34.8226 0.11683C34.249 -0.0419709 5.69515 -0.0374193 5.14054 0.121544ZM2.03245 6.99922C1.27104 7.15469 0.526748 7.76323 0.211148 8.48808L0.0307603 8.90247L0.0062188 14.4694C-0.0112885 18.4371 0.00746932 20.1648 0.0714021 20.4834C0.175508 21.002 0.573564 21.679 0.94958 21.9773C1.40086 22.3352 1.78899 22.4628 2.57088 22.5105L3.31337 22.5557L3.35245 24.0373L3.39153 25.5189L3.60818 25.7439L3.82476 25.9691L6.55691 25.9924C8.90484 26.0124 9.32204 25.9979 9.52385 25.8894C9.94199 25.6645 9.99584 25.4378 9.99584 23.9008V22.5151H20H30.0042V23.9008C30.0042 25.4378 30.058 25.6645 30.4762 25.8894C30.678 25.9979 31.0952 26.0124 33.4431 25.9924L36.1752 25.9691L36.3918 25.7439L36.6085 25.5189L36.6475 24.0373L36.6866 22.5557L37.4291 22.5105C38.211 22.4628 38.5991 22.3352 39.0504 21.9773C39.4264 21.679 39.8245 21.002 39.9286 20.4834C39.9925 20.1648 40.0113 18.4371 39.9938 14.4694L39.9692 8.90247L39.7888 8.48808C39.6896 8.2602 39.461 7.92496 39.2808 7.74316C38.6493 7.10601 38.043 6.91137 36.6903 6.91137C35.7799 6.91137 35.0962 7.02287 34.692 7.23726C34.2987 7.44596 33.7978 7.98973 33.5848 8.43964C33.4078 8.81307 33.4031 8.88727 33.3649 11.9094C33.3216 15.331 33.3216 15.3311 32.801 15.5198C32.4618 15.6428 7.53818 15.6428 7.19897 15.5198C6.67837 15.3311 6.67837 15.331 6.63507 11.9094C6.59685 8.88727 6.59216 8.81307 6.41521 8.43964C6.20215 7.98973 5.70132 7.44596 5.30795 7.23726C5.15391 7.15558 4.82033 7.04879 4.56663 7.00003C4.03258 6.89739 2.53344 6.8969 2.03245 6.99922Z" fill="#45983C"/>
</svg>
