<svg width="48" height="31" viewBox="0 0 48 31" fill="none" xmlns="http://www.w3.org/2000/svg">
<path fill-rule="evenodd" clip-rule="evenodd" d="M0.338324 0.273428L0.0320672 0.546856L0.00599887 12.7595C-0.00834811 19.4764 0.00393591 25.0706 0.0332863 25.1909C0.0625428 25.3113 0.196448 25.5115 0.330822 25.636C0.568532 25.8561 0.617011 25.8623 2.11491 25.8623C4.12011 25.8623 4.17853 25.8323 4.44025 24.6672C5.01459 22.1105 7.15464 20.4274 9.83115 20.4274C12.4894 20.4274 14.658 22.1398 15.225 24.6863C15.3326 25.1697 15.4541 25.4586 15.6193 25.6237L15.8581 25.8623H22.2758H28.6936L28.9677 25.5884L29.2418 25.3145L29.2397 12.9618C29.2377 1.39928 29.2272 0.596331 29.0756 0.409204C28.9864 0.29929 28.8214 0.162201 28.7088 0.104667C28.5606 0.0289542 24.649 0 14.5743 0H0.64458L0.338324 0.273428ZM31.894 5.3131C31.7797 5.33522 31.5793 5.48027 31.4486 5.63554L31.211 5.91768V15.6017V25.2856L31.4995 25.5739C31.7806 25.8549 31.8105 25.8623 32.6664 25.8623C33.8179 25.8623 33.9545 25.7563 34.2143 24.6619C34.6378 22.877 35.5636 21.6939 37.0958 20.9796C39.1914 20.0026 41.7279 20.3425 43.3232 21.8142C44.2586 22.677 44.8341 23.7317 45.0414 24.9627C45.0778 25.1797 45.2115 25.4368 45.3701 25.5952C45.626 25.851 45.6741 25.8622 46.5119 25.8602C47.4403 25.858 47.6651 25.7715 47.8912 25.3297C48.0289 25.0606 48.0395 15.4363 47.9023 15.1803C47.6607 14.7289 39.8868 5.55758 39.622 5.4114C39.3524 5.2625 38.9922 5.24863 35.7135 5.26016C33.727 5.26719 32.0083 5.29099 31.894 5.3131ZM38.792 7.36625C38.9289 7.44927 39.7582 8.37984 40.635 9.4342C43.3071 12.6478 43.2137 12.5204 43.2137 12.9446C43.2137 13.235 43.1514 13.3826 42.9396 13.5943L42.6655 13.8682H38.2056H33.7458L33.4395 13.5947L33.1333 13.3213V10.5417V7.76205L33.4395 7.48863L33.7458 7.2152H36.1443C38.1849 7.2152 38.5802 7.23778 38.792 7.36625ZM9.04038 22.3072C8.355 22.4218 7.45864 22.917 6.93521 23.47C6.14557 24.3043 5.78989 25.1788 5.79064 26.2839C5.79205 28.3292 7.17246 29.9431 9.22023 30.2935C10.783 30.561 12.5518 29.717 13.3421 28.3266C13.7638 27.5848 13.8879 27.0367 13.8468 26.0976C13.813 25.3253 13.77 25.1496 13.4632 24.5292C12.897 23.3845 11.9084 22.6012 10.7092 22.3473C10.0029 22.1978 9.73334 22.1913 9.04038 22.3072ZM38.8165 22.3092C38.0969 22.4504 37.2322 22.9204 36.7139 23.452C34.8753 25.3381 35.2632 28.4286 37.5068 29.7705C39.9731 31.2455 43.094 29.7829 43.5995 26.9153C43.8941 25.2446 42.9222 23.3814 41.3803 22.6603C40.5172 22.2567 39.6731 22.1411 38.8165 22.3092ZM10.4431 25.3015C10.8424 25.5481 11.0868 26.0593 11.0075 26.4818C10.973 26.6655 10.808 26.9414 10.6206 27.1287C10.3363 27.4127 10.2339 27.4552 9.83471 27.4552C9.44453 27.4552 9.32656 27.409 9.04872 27.1471C8.00917 26.1675 9.22961 24.5521 10.4431 25.3015ZM40.128 25.2578C40.5011 25.4505 40.7749 25.9189 40.7752 26.3653C40.7755 26.6616 40.7092 26.7941 40.4116 27.0915C40.1038 27.3989 39.9863 27.4552 39.6524 27.4552C39.4352 27.4552 39.1405 27.3863 38.9977 27.3019C38.6374 27.0893 38.4313 26.701 38.4313 26.235C38.4313 25.9013 38.4877 25.7839 38.7954 25.4764C39.206 25.0662 39.6244 24.9975 40.128 25.2578Z" fill="#45983C"/>
</svg>
