<svg width="38" height="37" viewBox="0 0 38 37" fill="none" xmlns="http://www.w3.org/2000/svg">
<path fill-rule="evenodd" clip-rule="evenodd" d="M17.136 0.0437814C13.498 0.393826 10.1356 1.71098 7.18747 3.94088C5.75182 5.02677 3.88741 7.06754 2.80999 8.73227C2.34468 9.45125 1.43889 11.2731 1.11441 12.1426C0.751615 13.1148 0.364937 14.6006 0.174657 15.7534C-0.058219 17.1645 -0.058219 19.8435 0.174657 21.2545C0.503926 23.2493 1.0248 24.8618 1.91636 26.6471C2.89046 28.5974 3.90333 29.9799 5.52528 31.5731C7.1473 33.1662 8.55488 34.161 10.5406 35.1178C12.3582 35.9934 14 36.505 16.0309 36.8285C17.4675 37.0572 20.1951 37.0572 21.6317 36.8285C23.6626 36.505 25.3043 35.9934 27.122 35.1178C29.1077 34.161 30.5152 33.1662 32.1373 31.5731C33.7592 29.9799 34.7721 28.5974 35.7462 26.6471C36.3931 25.3516 36.7186 24.5025 37.0672 23.2005C37.5314 21.4667 37.6491 20.5162 37.6491 18.504C37.6491 16.4917 37.5314 15.5413 37.0672 13.8074C36.7186 12.5055 36.3931 11.6564 35.7462 10.3609C34.7721 8.41053 33.7592 7.02802 32.1373 5.43487C30.5152 3.84179 29.1077 2.84696 27.122 1.8902C25.3061 1.01531 23.6318 0.493352 21.6685 0.189995C20.5853 0.0226456 18.1665 -0.0553833 17.136 0.0437814ZM28.7023 10.5582C29.0709 10.6694 29.6333 11.217 29.7888 11.6162C29.9689 12.0788 29.9509 12.6798 29.7442 13.099C29.5123 13.5696 17.3814 25.3963 16.8315 25.688C16.305 25.9672 15.6832 25.9672 15.156 25.688C14.8438 25.5227 9.25601 20.6071 8.30601 19.6621C7.9351 19.2932 7.75057 18.8426 7.75742 18.323C7.77202 17.2275 8.58531 16.4886 9.69089 16.5663C9.95619 16.585 10.2795 16.6542 10.4093 16.72C10.6055 16.8197 14.3309 20.1091 15.5345 21.2454L15.8856 21.5769L21.3932 16.1752C24.4224 13.2043 27.0076 10.7211 27.138 10.6571C27.6486 10.4061 28.1028 10.3774 28.7023 10.5582Z" fill="#45983C"/>
</svg>
