<svg width="23" height="23" viewBox="0 0 23 23" fill="none" xmlns="http://www.w3.org/2000/svg">
<path fill-rule="evenodd" clip-rule="evenodd" d="M3.75727 0.0571945C2.81857 0.228255 2.02933 0.645559 1.34059 1.33502C0.635539 2.04073 0.228399 2.8244 0.0603387 3.79925C6.34092e-05 4.14893 -0.00685859 5.12639 0.00460315 11.687L0.017683 19.1757L0.114771 19.5368C0.377492 20.5138 0.896597 21.3346 1.65797 21.977C2.08349 22.336 2.91481 22.7571 3.47679 22.8983L3.88132 23H11.4775C18.7246 23 19.0903 22.9961 19.4333 22.9163C20.7782 22.6033 21.9076 21.7127 22.5223 20.4804C22.7362 20.0518 22.8591 19.677 22.9403 19.2064C22.9998 18.861 23.0068 17.856 22.9954 11.3219L22.9823 3.83327L22.8853 3.47216C22.4306 1.78135 21.2202 0.570467 19.5232 0.108666L19.1637 0.0108074L11.6349 0.00216889C5.31575 -0.00502989 4.05001 0.0038336 3.75727 0.0571945ZM19.3884 1.57123C19.8906 1.74247 20.2742 1.98062 20.6443 2.35113C21.0145 2.7216 21.2524 3.10556 21.4235 3.6083L21.5459 3.96824V11.5045V19.0407L21.4235 19.4006C21.2524 19.9034 21.0145 20.2873 20.6443 20.6578C20.2742 21.0283 19.8906 21.2664 19.3884 21.4377L19.0288 21.5602H11.5H3.97122L3.61164 21.4377C3.10939 21.2664 2.7258 21.0283 2.3557 20.6578C1.98555 20.2873 1.74764 19.9034 1.57657 19.4006L1.45413 19.0407V11.5045V3.96824L1.57644 3.60736C1.94928 2.50734 2.79844 1.74306 3.92627 1.49245C4.14571 1.44372 5.57816 1.43405 11.6124 1.44062L19.0288 1.44867L19.3884 1.57123ZM16.9654 3.87461C16.3182 4.14722 15.9499 4.70333 15.9499 5.408C15.9499 6.39702 16.7321 7.11289 17.7304 7.0373C18.3208 6.99263 18.7806 6.70099 19.0388 6.20742C19.2098 5.88082 19.2381 5.75898 19.236 5.35927C19.2338 4.9264 19.1072 4.59917 18.8207 4.28535C18.4927 3.92608 18.1985 3.79777 17.6579 3.77824C17.2834 3.76465 17.1983 3.77653 16.9654 3.87461ZM17.7909 5.27086C17.8709 5.36737 17.8309 5.48574 17.6917 5.56394C17.5985 5.61627 17.5497 5.62099 17.4897 5.58338C17.3918 5.52196 17.3632 5.35743 17.4352 5.27055C17.5048 5.18655 17.7212 5.18673 17.7909 5.27086ZM10.8532 5.6551C9.46724 5.83021 8.33945 6.381 7.36053 7.36089C6.49914 8.22312 5.99294 9.15599 5.74024 10.3466C5.60256 10.9956 5.60256 12.0133 5.74024 12.6623C5.99294 13.8529 6.49914 14.7858 7.36053 15.648C8.02328 16.3114 8.70596 16.7487 9.55673 17.0546C10.7454 17.4821 12.2548 17.4821 13.4433 17.0546C15.1109 16.4548 16.4455 15.1189 17.0447 13.4497C17.4718 12.26 17.4718 10.7491 17.0447 9.55926C16.7391 8.70765 16.3023 8.0243 15.6395 7.36089C14.779 6.49956 13.8273 5.98178 12.6711 5.74593C12.1571 5.6411 11.3022 5.59836 10.8532 5.6551ZM12.5871 7.20297C13.3841 7.40534 14.0363 7.77878 14.6292 8.37223C15.2204 8.96406 15.5883 9.60691 15.8035 10.4241C15.9588 11.0139 15.9675 11.9228 15.8236 12.5066C15.6184 13.3389 15.2423 14.0133 14.648 14.6148C14.0449 15.2252 13.4089 15.5933 12.5793 15.8122C11.9901 15.9676 11.0821 15.9764 10.4988 15.8323C9.66739 15.6269 8.99362 15.2505 8.39276 14.6555C7.78322 14.0521 7.41572 13.4161 7.19624 12.5848C7.10037 12.2218 7.08324 12.0578 7.08324 11.5045C7.08324 10.9511 7.10037 10.7871 7.19624 10.4241C7.6664 8.64362 9.11552 7.3505 10.9269 7.09516C11.363 7.03366 12.1119 7.0823 12.5871 7.20297Z" fill="#4B1814"/>
</svg>
