<svg width="16" height="16" viewBox="0 0 16 16" fill="none" xmlns="http://www.w3.org/2000/svg">
<path fill-rule="evenodd" clip-rule="evenodd" d="M13.2303 0.0422481C13.6182 0.126391 13.693 0.184751 14.7067 1.19582C15.5914 2.07815 15.6599 2.15444 15.7637 2.37392C15.9347 2.73562 15.9774 2.93213 15.9959 3.44353C16.0146 3.95994 15.9723 4.30114 15.8158 4.89512C14.8733 8.47355 10.6485 13.1799 6.60495 15.1561C5.40584 15.7421 4.50046 15.997 3.60764 16C3.06113 16.0018 2.78472 15.9466 2.40599 15.7604C2.16213 15.6404 2.09797 15.5835 1.21764 14.7066C0.231766 13.7247 0.172825 13.6504 0.0489149 13.2343C-0.016304 13.0152 -0.016304 12.6043 0.0489149 12.3851C0.161243 12.0076 0.207034 11.9528 1.45391 10.7024C2.11197 10.0424 2.73513 9.44231 2.8387 9.3688C3.46142 8.92681 4.26096 8.98811 4.78183 9.51775C4.93945 9.67803 5.00009 9.77187 5.109 10.024C5.18253 10.1942 5.28083 10.385 5.3275 10.448C5.62739 10.8532 6.20651 11.1112 6.69911 11.0591C7.43349 10.9813 8.52919 10.3198 9.45735 9.39365C10.581 8.27247 11.2437 6.98247 11.0821 6.23109C11.0068 5.88122 10.7605 5.51511 10.4691 5.32006C10.398 5.27247 10.248 5.19452 10.1358 5.1469C9.80984 5.00843 9.72965 4.96303 9.57834 4.83126C9.05609 4.3764 8.94178 3.52508 9.32192 2.92152C9.43381 2.74391 11.598 0.560689 11.862 0.359077C12.0725 0.198331 12.3488 0.0745411 12.5975 0.029481C12.8331 -0.0132009 12.9893 -0.0100404 13.2303 0.0422481Z" fill="#4B1814"/>
</svg>
