<svg width="16" height="16" viewBox="0 0 16 16" fill="none" xmlns="http://www.w3.org/2000/svg">
<path fill-rule="evenodd" clip-rule="evenodd" d="M4.75618 10.1742L0.72118 14.2092C0.579356 14.3512 0.49972 14.5436 0.49979 14.7443C0.499861 14.9449 0.579631 15.1373 0.721556 15.2791C0.86348 15.4209 1.05593 15.5006 1.25657 15.5005C1.45721 15.5004 1.64961 15.4207 1.79143 15.2787L5.82643 11.2437C7.03265 12.178 8.54947 12.6177 10.0683 12.4733C11.5872 12.3289 12.994 11.6113 14.0026 10.4665C15.0111 9.32164 15.5457 7.83561 15.4975 6.31066C15.4493 4.78571 14.822 3.33639 13.7431 2.25755C12.6643 1.17871 11.215 0.551384 9.69002 0.503188C8.16507 0.454992 6.67904 0.989548 5.53422 1.99811C4.38941 3.00667 3.67181 4.41348 3.52742 5.93234C3.38302 7.45121 3.82267 8.96803 4.75693 10.1742H4.75618ZM9.49993 11C8.30646 11 7.16186 10.5259 6.31795 9.68198C5.47404 8.83807 4.99993 7.69347 4.99993 6.5C4.99993 5.30652 5.47404 4.16193 6.31795 3.31802C7.16186 2.47411 8.30646 2 9.49993 2C10.6934 2 11.838 2.47411 12.6819 3.31802C13.5258 4.16193 13.9999 5.30652 13.9999 6.5C13.9999 7.69347 13.5258 8.83807 12.6819 9.68198C11.838 10.5259 10.6934 11 9.49993 11Z" fill="#9D8F8A"/>
</svg>
