<svg width="30" height="28" viewBox="0 0 30 28" fill="none" xmlns="http://www.w3.org/2000/svg">
<path fill-rule="evenodd" clip-rule="evenodd" d="M5.84401 0.43846C3.85063 0.974833 0.921164 3.90517 0.384803 5.89943C-0.215168 8.13107 -0.128597 9.64945 0.750658 12.3037C2.15686 16.5503 5.47364 20.8344 10.9547 25.4845C14.5925 28.5707 15.3306 28.6836 17.9206 26.5515C26.945 19.1227 31.1941 11.7486 29.7096 6.09086C29.0649 3.63373 26.3164 0.990913 23.7555 0.366102C21.2411 -0.247224 18.4329 0.530344 16.4331 2.39368L15.0246 3.7057L13.6218 2.39865C12.3214 1.18693 9.27484 -0.0871928 7.89875 0.00469123C7.5743 0.0265137 6.6495 0.221767 5.84401 0.43846Z" fill="#F1EDEB"/>
</svg>
