<svg width="17" height="15" viewBox="0 0 17 15" fill="none" xmlns="http://www.w3.org/2000/svg">
<path fill-rule="evenodd" clip-rule="evenodd" d="M0.0723292 0.271518C-0.157225 0.841344 0.152521 1.08607 1.10342 1.08607H2.02506L2.59039 2.85094C2.90128 3.82171 3.55137 5.91909 4.03499 7.512C4.76089 9.90353 5.01211 10.4949 5.47616 10.906L6.03807 11.4038H10.1396H14.2412L14.8446 10.8155C15.3635 10.3094 15.5638 9.80596 16.2781 7.21242C16.7346 5.55435 17.0559 4.06788 16.9919 3.90895C16.8885 3.65264 16.163 3.62024 10.5189 3.62024H4.1625L3.73474 2.24799C3.10955 0.242013 2.85643 0 1.38276 0C0.490581 0 0.153661 0.0698706 0.0723292 0.271518ZM6.15304 12.9434C5.14399 13.9046 6.28568 15.4887 7.53018 14.8542C8.70664 14.2545 8.3091 12.6708 6.98213 12.6708C6.6836 12.6708 6.31038 12.7936 6.15304 12.9434ZM12.4274 13.0019C11.3338 14.153 13.0547 15.7361 14.1701 14.6051C14.3974 14.3747 14.5833 14.0082 14.5833 13.7906C14.5833 12.8497 13.0908 12.3036 12.4274 13.0019Z" fill="black"/>
</svg>
